HIERARCHY
ROOT Hips
{
	OFFSET -22.846729 91.940529 -261.900696
	CHANNELS 6 Xposition Yposition Zposition Zrotation Yrotation Xrotation 
	JOINT RightUpLeg
	{
		OFFSET 0.103462 1.857826 10.548503
		CHANNELS 3 Xrotation Yrotation Zrotation
		JOINT RightLeg
		{
			OFFSET 43.500000 -0.000031 0.000000
			CHANNELS 3 Xrotation Yrotation Zrotation
			JOINT RightFoot
			{
				OFFSET 42.372200 0.000008 -0.000003
				CHANNELS 3 Xrotation Yrotation Zrotation
				JOINT RightToe
				{
					OFFSET 17.300003 0.000000 0.000002
					CHANNELS 3 Xrotation Yrotation Zrotation
					End Site
					{
						OFFSET 0.000000 0.000000 0.000000
					}
				}
			}
		}
	}
	JOINT LeftUpLeg
	{
		OFFSET 0.103456 1.857828 -10.548503
		CHANNELS 3 Xrotation Yrotation Zrotation
		JOINT LeftLeg
		{
			OFFSET 43.500042 -0.000019 0.000010
			CHANNELS 3 Xrotation Yrotation Zrotation
			JOINT LeftFoot
			{
				OFFSET 42.372253 0.000000 0.000013
				CHANNELS 3 Xrotation Yrotation Zrotation
				JOINT LeftToe
				{
					OFFSET 17.299976 -0.000010 0.000008
					CHANNELS 3 Xrotation Yrotation Zrotation
					End Site
					{
						OFFSET 0.000000 0.000000 0.000000
					}
				}
			}
		}
	}
	JOINT Spine
	{
		OFFSET 6.901965 -2.603735 -0.000001
		CHANNELS 3 Xrotation Yrotation Zrotation
		JOINT Spine1
		{
			OFFSET 12.588106 -0.000003 0.000000
			CHANNELS 3 Xrotation Yrotation Zrotation
			JOINT Spine2
			{
				OFFSET 12.343198 0.000019 -0.000002
				CHANNELS 3 Xrotation Yrotation Zrotation
				JOINT Neck
				{
					OFFSET 25.832905 -0.000013 0.000001
					CHANNELS 3 Xrotation Yrotation Zrotation
					JOINT Head
					{
						OFFSET 11.766598 0.000013 -0.000001
						CHANNELS 3 Xrotation Yrotation Zrotation
						End Site
						{
							OFFSET 0.000000 0.000000 0.000000
						}
					}
				}
				JOINT RightShoulder
				{
					OFFSET 19.745911 -1.480387 6.000106
					CHANNELS 3 Xrotation Yrotation Zrotation
					JOINT RightArm
					{
						OFFSET 11.284126 -0.000005 -0.000031
						CHANNELS 3 Xrotation Yrotation Zrotation
						JOINT RightForeArm
						{
							OFFSET 33.000053 -0.000022 0.000026
							CHANNELS 3 Xrotation Yrotation Zrotation
							JOINT RightHand
							{
								OFFSET 25.200005 0.000041 0.000016
								CHANNELS 3 Xrotation Yrotation Zrotation
								End Site
								{
									OFFSET 0.000000 0.000000 0.000000
								}
							}
						}
					}
				}
				JOINT LeftShoulder
				{
					OFFSET 19.746105 -1.480383 -6.000075
					CHANNELS 3 Xrotation Yrotation Zrotation
					JOINT LeftArm
					{
						OFFSET 11.284141 -0.000009 -0.000009
						CHANNELS 3 Xrotation Yrotation Zrotation
						JOINT LeftForeArm
						{
							OFFSET 33.000092 0.000011 0.000021
							CHANNELS 3 Xrotation Yrotation Zrotation
							JOINT LeftHand
							{
								OFFSET 25.199780 0.000133 0.000423
								CHANNELS 3 Xrotation Yrotation Zrotation
								End Site
								{
									OFFSET 0.000000 0.000000 0.000000
								}
							}
						}
					}
				}
			}
		}
	}
}
MOTION
Frames: 17
Frame Time: 0.033333
-20.681761 91.812759 263.558899 90.563944 -3.581267 -87.413512 177.940348 -4.844902 -177.718626 -16.715500 -0.691775 0.782811 83.245622 -1.182613 -3.091955 21.454562 0.003095 0.000014 -178.379720 0.436601 -177.586271 -11.819368 2.681521 3.633721 82.881682 -2.852491 -1.308615 21.454553 -0.003082 0.000001 6.688256 0.648815 -0.535726 3.357854 1.312717 -1.052749 3.039719 1.306192 -1.060658 13.635565 -5.073979 -0.809674 -16.784982 1.936593 -1.754632 -176.428595 -72.928109 -5.046007 1.629476 59.447364 41.551685 -29.792336 -17.979131 1.442247 6.375894 -0.930894 11.342767 -145.759693 74.998059 36.493048 -7.269188 -63.430130 -38.170365 -24.269054 14.961939 -1.128451 3.232928 15.005405 1.767744 
-20.494881 91.775742 263.659698 90.637785 -3.748039 -87.516259 177.748146 -5.009998 -177.805083 -17.311480 -0.616502 0.807056 83.372970 -1.227472 -3.229374 21.454558 0.003105 0.000017 -178.402164 0.255993 -177.509185 -12.025164 2.679906 3.539048 82.880876 -2.813996 -1.435486 21.454551 -0.003084 0.000002 6.796645 0.702654 -0.491504 3.574772 1.419975 -0.961437 3.256602 1.414005 -0.969996 13.457122 -5.142561 -0.771523 -17.032899 1.995686 -1.752035 -176.296513 -72.964418 -5.182207 2.282471 59.158734 43.252159 -30.132749 -17.795819 1.437280 6.527091 0.178502 11.214317 -146.710906 75.208531 35.513104 -6.233024 -63.181572 -41.792503 -23.609413 14.001773 -1.057497 3.806335 18.698495 1.915758 
-20.305210 91.732559 263.798004 90.710684 -3.944765 -87.606820 177.498161 -5.168710 -177.921442 -18.022293 -0.515342 0.861169 83.483975 -1.291829 -3.356559 21.454558 0.003111 0.000018 -178.428406 0.071297 -177.507327 -12.249429 2.689406 3.497607 82.878847 -2.810341 -1.553935 21.454553 -0.003095 0.000001 6.924317 0.764986 -0.447967 3.830299 1.544215 -0.870752 3.512113 1.538796 -0.880074 13.264393 -5.352945 -0.697367 -17.264461 2.140313 -1.749779 -176.059819 -72.946407 -5.425095 2.559886 58.649475 44.537553 -30.678283 -17.673772 1.440429 6.260343 -0.410377 11.189288 -147.221982 75.392079 34.984458 -5.234773 -62.736503 -44.978469 -23.681651 13.664821 -1.037050 4.132681 21.205355 2.408927 
-20.100401 91.679527 264.023987 90.797564 -4.137364 -87.621328 177.086533 -5.347394 -178.058701 -18.889216 -0.385826 0.990184 83.565192 -1.404461 -3.456913 21.454560 0.003100 0.000017 -178.551827 -0.139298 -177.452618 -12.560888 2.691489 3.473268 82.875323 -2.817471 -1.669480 21.454553 -0.003091 0.000000 7.066372 0.832791 -0.422252 4.114373 1.679930 -0.815024 3.796158 1.674845 -0.825163 13.138908 -5.463249 -0.609661 -17.501072 2.137276 -1.672495 -176.128954 -72.982094 -5.354487 2.653990 58.123516 45.088217 -31.411845 -17.705221 1.457507 5.764705 -1.406998 10.992201 -147.112084 75.511136 35.092604 -4.784863 -62.231602 -46.568356 -24.287357 13.668831 -1.046270 4.377836 21.678990 2.704647 
-19.882620 91.621407 264.320404 90.876849 -4.323190 -87.537152 176.569952 -5.527703 -178.262487 -19.806995 -0.211473 1.224696 83.594159 -1.592778 -3.553225 21.454558 0.003108 0.000017 -178.744889 -0.346499 -177.263681 -12.929680 2.687209 3.429962 82.868541 -2.812528 -1.789396 21.454555 -0.003096 -0.000000 7.215905 0.907088 -0.422413 4.413079 1.829511 -0.810353 4.094841 1.824446 -0.821387 13.097008 -5.628075 -0.544524 -17.626895 2.049950 -1.583713 -176.408705 -72.997695 -5.067296 2.460027 57.632849 44.906428 -32.100144 -17.857000 1.481717 5.514651 -2.302003 10.357216 -146.783374 75.661666 35.423123 -4.867122 -61.595834 -47.146668 -25.262821 13.743387 -1.066053 4.610891 21.499161 3.038980 
-19.647310 91.552887 264.704590 90.964985 -4.496944 -87.337007 175.905716 -5.711096 -178.460112 -20.817537 0.019619 1.520665 83.602963 -1.835596 -3.693315 21.454555 0.003111 0.000019 -178.995079 -0.561201 -176.799734 -13.303388 2.662990 3.295541 82.827921 -2.750093 -1.930174 21.454553 -0.003092 0.000001 7.379739 0.988276 -0.443437 4.739952 1.993793 -0.846474 4.421690 1.988511 -0.858510 13.031828 -5.774684 -0.491827 -17.647675 1.966703 -1.507651 -176.775295 -73.032686 -4.691296 1.907889 57.307835 44.115553 -32.624060 -18.255141 1.518515 5.335731 -3.242060 9.914887 -146.365312 75.793585 35.845461 -5.535289 -60.946044 -46.797533 -26.285184 14.003390 -1.099197 4.706172 20.831358 3.221442 
-19.396429 91.468079 265.187195 91.084309 -4.623604 -87.022996 175.035332 -5.878208 -178.458008 -21.951190 0.297857 1.750793 83.605081 -2.046078 -3.890458 21.454557 0.003112 0.000018 -179.363527 -0.812495 -176.267580 -13.705268 2.636756 3.192812 82.770971 -2.707931 -2.062611 21.454553 -0.003104 -0.000001 7.548668 1.084105 -0.473415 5.076813 2.187825 -0.899306 4.758507 2.182218 -0.912511 12.991613 -5.850948 -0.479953 -17.662372 1.810418 -1.443047 -177.449216 -73.108999 -4.000197 1.092535 57.115848 42.599200 -33.106139 -18.732099 1.559686 5.223389 -3.770264 9.265847 -146.358987 75.870670 35.849163 -6.579264 -60.195550 -45.648784 -27.380685 14.414194 -1.144064 4.685672 19.726208 3.193076 
-19.135750 91.370644 265.790405 91.237271 -4.631675 -86.696513 173.887300 -6.043804 -178.343233 -23.211662 0.567306 1.905490 83.524102 -2.196989 -4.041771 21.454558 0.003111 0.000018 -179.959311 -1.072699 -175.858957 -14.155794 2.667291 3.174352 82.694159 -2.726529 -2.201406 21.454550 -0.003100 -0.000002 7.719778 1.196785 -0.488998 5.418186 2.415033 -0.921946 5.099828 2.409291 -0.936540 12.821510 -5.970120 -0.482139 -17.701118 1.749486 -1.438110 -177.947888 -73.272214 -3.490600 -0.120171 57.062747 40.533372 -33.726699 -19.183669 1.602591 5.052261 -4.395558 8.970162 -146.640009 75.957475 35.559143 -8.033534 -59.413712 -44.050694 -28.315828 14.908442 -1.192295 4.665077 18.776584 3.567234 
-18.871161 91.261871 266.513489 91.387371 -4.602929 -86.276436 172.525961 -6.177104 -177.992927 -24.593191 0.768763 1.973878 83.300297 -2.283582 -4.152758 21.454555 0.003108 0.000017 179.303462 -1.298195 -175.310575 -14.675790 2.712533 3.131610 82.608235 -2.731690 -2.350904 21.454553 -0.003095 -0.000001 7.923535 1.328043 -0.484644 5.825250 2.678721 -0.902393 5.506827 2.673082 -0.918556 12.479749 -6.169839 -0.496593 -17.797412 1.752162 -1.484689 -178.822590 -73.401700 -2.594888 -1.529380 56.989391 38.389611 -34.706309 -19.766253 1.662649 5.182510 -5.207737 8.745823 -146.689992 76.014507 35.506045 -9.762993 -58.592805 -41.984790 -29.423256 15.500013 -1.250697 5.087790 17.822301 4.165653 
-18.612280 91.141769 267.364410 91.519289 -4.523988 -85.658338 170.868903 -6.204608 -177.217222 -26.168726 0.902547 1.917305 82.877877 -2.293102 -4.273966 21.454555 0.003119 0.000018 178.440181 -1.450395 -174.479136 -15.222752 2.771540 3.037135 82.493030 -2.705402 -2.511624 21.454553 -0.003079 0.000002 8.155409 1.483150 -0.475704 6.288748 2.989883 -0.870693 5.970209 2.984433 -0.888755 12.063490 -6.266840 -0.505386 -18.041378 1.594531 -1.468160 179.740854 -73.585316 -1.124097 -3.011675 57.021636 36.101911 -36.040033 -20.427047 1.737256 5.238713 -6.198275 8.784937 -147.041706 76.222316 35.139848 -11.515082 -57.814519 -39.685721 -30.423326 16.086697 -1.307631 5.366618 17.327333 4.907167 
-18.377520 91.020569 268.322510 91.616688 -4.305224 -84.993522 168.979399 -6.192904 -176.321607 -27.731673 0.847846 1.843823 82.255674 -2.280999 -4.323921 21.454557 0.003105 0.000014 177.365328 -1.502118 -173.581266 -15.786070 2.834494 2.926195 82.333791 -2.665825 -2.655593 21.454553 -0.003104 -0.000002 8.375017 1.647422 -0.442793 6.728549 3.317714 -0.789658 6.409907 3.312763 -0.809716 11.787517 -6.394628 -0.559745 -18.393788 1.565359 -1.543632 178.090229 -73.792612 0.564662 -4.285021 57.093664 34.312616 -37.911880 -21.358280 1.844852 5.116729 -6.937193 8.992370 -147.722498 76.540240 34.434289 -13.138031 -57.024047 -37.308795 -31.360356 16.639651 -1.361916 5.355477 17.142194 5.531927 
-18.168159 90.939537 269.351501 91.590849 -3.964439 -84.300032 167.178497 -6.149794 -175.869120 -28.766277 0.677233 1.996047 81.361261 -2.407938 -4.252754 21.454560 0.003114 0.000018 176.216954 -1.381309 -172.720622 -16.180257 2.903394 2.841663 82.052162 -2.643454 -2.776696 21.454555 -0.003083 -0.000001 8.580088 1.799089 -0.402284 7.139892 3.619532 -0.693377 6.821140 3.615137 -0.715246 11.566111 -6.542436 -0.581363 -18.767852 1.681469 -1.638942 176.852777 -73.946107 1.829800 -5.419741 57.129765 32.727080 -40.274275 -22.275084 1.968129 4.724871 -7.201320 9.827006 -148.681320 77.019399 33.440616 -14.548779 -56.276900 -35.082867 -32.374738 17.213883 -1.419933 5.459138 17.405962 6.091199 
-18.001221 90.897003 270.410095 91.406120 -3.502227 -83.513980 165.607471 -5.955913 -175.997132 -29.082143 0.678813 2.483050 80.295519 -2.798876 -4.261258 21.454557 0.003109 0.000018 175.029909 -1.067995 -172.075469 -16.408997 2.982045 2.928355 81.681829 -2.724298 -2.822137 21.454555 -0.003096 0.000001 8.757230 1.916438 -0.368653 7.495523 3.852666 -0.612937 7.176659 3.848762 -0.636227 11.310038 -6.542334 -0.594816 -18.973296 1.793720 -1.715293 176.145483 -74.087007 2.551195 -6.435847 57.153701 31.253477 -42.837468 -22.815458 2.077065 4.226394 -7.900526 10.731595 -149.556609 77.365519 32.537450 -15.856469 -55.367255 -33.150504 -33.484360 17.726424 -1.476942 5.736778 17.558086 6.497058 
-17.863159 90.959846 271.526703 90.971474 -2.832077 -82.640474 164.448798 -5.570107 -176.073848 -28.173774 0.471915 3.063272 78.913595 -3.275421 -4.302328 21.454560 0.003106 0.000017 173.833505 -0.493194 -171.638610 -16.233597 3.032651 3.166473 81.080575 -2.897622 -2.786041 21.454555 -0.003092 -0.000000 8.870056 1.977671 -0.353435 7.721900 3.974487 -0.574593 7.402994 3.970795 -0.598624 11.212377 -6.434655 -0.708389 -19.022451 1.861096 -1.860848 175.520876 -74.177500 3.188877 -7.270095 57.141407 30.185345 -45.266430 -23.189197 2.175548 3.570098 -8.416224 11.930363 -150.479804 77.518761 31.592039 -17.087166 -54.310881 -31.509049 -34.364362 18.151486 -1.524056 5.668500 17.420896 6.442923 
-17.768230 91.041939 272.628510 90.468321 -2.141087 -81.742611 163.795149 -5.032591 -176.321593 -26.448557 0.317834 3.438950 77.754484 -3.630039 -4.461120 21.454558 0.003108 0.000018 172.738312 0.182098 -171.188405 -15.888912 3.026672 3.393724 80.398867 -3.051310 -2.692426 21.454553 -0.003101 0.000000 8.947140 2.028822 -0.354500 7.876233 4.077022 -0.570578 7.557271 4.073359 -0.595228 11.399111 -6.413966 -0.862733 -19.279372 1.917586 -2.038715 174.896160 -74.161504 3.829277 -7.897304 57.134389 29.577072 -47.203055 -23.449344 2.254487 2.762030 -8.702294 13.075514 -151.663189 77.916688 30.375135 -18.020635 -53.480706 -30.112153 -34.942920 18.520254 -1.561150 5.404780 17.354513 6.060596 
-17.716049 91.096291 273.692413 90.017235 -1.533426 -80.857391 163.646183 -4.557703 -176.387463 -24.206225 -0.042433 3.108407 77.509301 -3.701177 -5.574102 21.454558 0.003104 0.000017 171.698129 0.814397 -171.014591 -15.647748 2.995135 3.767792 79.768680 -3.286023 -2.529749 21.454553 -0.003098 -0.000002 9.013870 2.082342 -0.349249 8.010080 4.183816 -0.553988 7.691077 4.180237 -0.579297 11.569632 -6.204410 -1.056001 -19.485579 1.865776 -2.204688 173.970478 -74.252496 4.774988 -8.410557 57.356186 29.065269 -48.612212 -23.534475 2.306452 2.227044 -8.584959 14.599966 -152.404606 78.229503 29.611773 -18.824800 -52.696603 -28.836902 -35.445332 18.689611 -1.583848 5.284400 17.303736 5.566137 
-17.669479 91.148117 274.725098 89.600853 -1.041316 -79.986474 163.804438 -4.071311 -177.049869 -22.368866 -0.421462 1.818039 78.120371 -3.262271 -7.542659 21.454558 0.003100 0.000015 170.793566 1.389897 -171.047649 -15.400263 2.945648 4.250689 79.121540 -3.592664 -2.356183 21.454553 -0.003083 0.000001 9.083280 2.132817 -0.344001 8.149319 4.284519 -0.537387 7.830270 4.281068 -0.563316 11.526815 -6.095001 -1.245441 -19.483728 2.059072 -2.475349 172.872648 -74.419002 5.894284 -8.903148 57.662779 28.736167 -49.652361 -23.547538 2.342210 1.835627 -7.959577 16.086019 -152.717907 78.441881 29.287346 -19.557973 -51.983501 -27.718641 -35.820384 18.748876 -1.596580 5.181839 17.285679 5.303412 
